<?xml version="1.0"?>
<svg xmlns="http://www.w3.org/2000/svg" id="outline" viewBox="0 0 512 512" width="512" height="512"><title>teamwork-team-spirit-corporation-business</title><path d="M479.2832,484.68945l-36.415-80.11133A31.79471,31.79471,0,0,1,440,391.33594v-87l7.90723-94.8916,10.01367-35.04786a47.9929,47.9929,0,0,0-9.09863-43.69824L412.06836,86.0625a8.00273,8.00273,0,0,0-10.22559-1.81445L383.5542,94.98486,368.88184,80.3125a9.38622,9.38622,0,0,1-2.042-10.26465l.09766-.2373A9.37966,9.37966,0,0,1,375.63867,64H408a8.00039,8.00039,0,0,0,8-8V24a8.00039,8.00039,0,0,0-8-8H312a8.00039,8.00039,0,0,0-8,8,48,48,0,0,1-96,0,8.00039,8.00039,0,0,0-8-8H104a8.00039,8.00039,0,0,0-8,8V56a8.00039,8.00039,0,0,0,8,8h32.36133a9.37523,9.37523,0,0,1,8.69629,5.79883l.09863.24023a9.389,9.389,0,0,1-2.03809,10.27344L128.4458,94.98486,110.15723,84.24805A8.00313,8.00313,0,0,0,99.93164,86.0625L63.17773,130.69727a47.994,47.994,0,0,0-9.09863,43.69824l10.01367,35.04883L72,304.33594v87a31.787,31.787,0,0,1-2.86816,13.24121l-36.415,80.1123A8,8,0,0,0,40,496H64a7.998,7.998,0,0,0,6.31445-3.08887L119.793,429.29688a48.07365,48.07365,0,0,0,9.62891-22.68067l1.9436-13.603,16.58862,20.73487a32.184,32.184,0,0,1,6.25,13.04883l13.98633,62.93847A8,8,0,0,0,176,496h24a8.00039,8.00039,0,0,0,8-8V411.47168a47.95427,47.95427,0,0,0-7.2959-25.44043L168,333.70508V305.88867l29.96289-59.92578,17.68848-8.84473a48.28572,48.28572,0,0,0,21.46679-21.46582L252.94434,184h6.11132l15.82618,31.65137a48.28572,48.28572,0,0,0,21.46582,21.46679l17.68945,8.84473L344,305.88867v27.81641l-32.7041,52.32617A47.95427,47.95427,0,0,0,304,411.47168V488a8.00039,8.00039,0,0,0,8,8h24a8,8,0,0,0,7.80957-6.26465l13.98633-62.9375a32.172,32.172,0,0,1,6.25-13.04883l16.58862-20.73559,1.9436,13.60278A48.066,48.066,0,0,0,392.207,429.2959l49.47852,63.61523A7.998,7.998,0,0,0,448,496h24a8,8,0,0,0,7.2832-11.31055Zm-75.22754-383.1875,32.415,39.36719a31.99317,31.99317,0,0,1,6.06543,29.13184l-.81982,2.86963-19.51465-7.80591.19873-.2649a8,8,0,0,0,.5459-8.76855l-28.07715-49.13574ZM368,208a16.01833,16.01833,0,0,1-16-16V176h32v16A16.01833,16.01833,0,0,1,368,208Zm-50.94629-22.59473L296,157.333V143.63867a9.37523,9.37523,0,0,1,5.79883-8.69629l.24023-.09863a9.392,9.392,0,0,1,10.27442,2.03809l22.88281,22.88281a8.014,8.014,0,0,0,.80371.69311V192c0,.33325.01514.66284.02515.99365ZM231.91357,141.5835A120.98924,120.98924,0,0,0,256,144a120.08356,120.08356,0,0,0,24.08789-2.42969c-.05493.68408-.08789,1.37305-.08789,2.06836V168H232V143.63867C232,142.94775,231.96777,142.26318,231.91357,141.5835ZM216,143.63867V157.333l-21.05371,28.07226-18.97144,7.58863c.01-.33081.02515-.66065.02515-.9939V160.45752a8.01134,8.01134,0,0,0,.80371-.69287l22.88379-22.88281a9.37407,9.37407,0,0,1,10.00146-2.12793c.282.11767.56177.24072.84449.35644A9.36547,9.36547,0,0,1,216,143.63867ZM128,192V176h32v16a16,16,0,0,1-32,0Zm-22.44629-32.59473,21.66455-37.91259L140.813,135.08789a26.38673,26.38673,0,0,0-5.89111,2.92773L115.5625,150.92188A7.9994,7.9994,0,0,0,112,157.57812V168h0Zm44.02441-9.82715A10.43313,10.43313,0,0,1,160,160H130.78906l13.00879-8.67285A10.38517,10.38517,0,0,1,149.57812,149.57812Zm218.625,1.75L381.21094,160H352a10.42245,10.42245,0,0,1,16.20312-8.67188ZM400,168V157.57812a7.9994,7.9994,0,0,0-3.5625-6.65624L377.0791,138.0166a26.39365,26.39365,0,0,0-5.89233-2.92871l13.595-13.59521,21.66455,37.91259L400,168ZM374.794,108.85254,340.85352,142.794,323.627,125.56738c-.50586-.50586-1.03222-.981-1.5708-1.437a120.96862,120.96862,0,0,0,34.07422-34.07422c.45606.53858.93115,1.06494,1.437,1.5708ZM400,48H375.63867c-.69531,0-1.38428.033-2.06836.08789A119.67668,119.67668,0,0,0,375.72705,32H400ZM154.43262,91.62695a25.34643,25.34643,0,0,0,5.49707-27.7334l-.07813-.18847A25.32909,25.32909,0,0,0,136.36133,48H112V32h80.49707a64.00555,64.00555,0,0,0,127.00586,0h40.19238A104.13948,104.13948,0,0,1,256,128a103.87194,103.87194,0,0,1-39.21-7.62524c-.16675-.073-.32617-.1565-.49512-.22632l-.10058-.042-.09668-.04c-.12647-.05249-.25537-.092-.38233-.14234a103.88065,103.88065,0,0,1-32.50049-21.63794l-11.19726,11.42774a121.02916,121.02916,0,0,0,17.86889,14.4624c-.51879.44189-1.02514.90308-1.51342,1.39111L171.14648,142.794l-33.94043-33.94141ZM75.5293,140.86816l32.415-39.36621,9.18652,5.39356L89.05371,156.03125a8,8,0,0,0,.5459,8.76855l.19873.2649-19.5144,7.80566L69.46387,170A31.99432,31.99432,0,0,1,75.5293,140.86816Zm42.208,234.40235-4.15527,29.082a32.05359,32.05359,0,0,1-6.418,15.12109L60.08691,480H52.42383l31.27441-68.80273A47.68386,47.68386,0,0,0,88,391.33594V312h64v20l-15.54492,11.6582A47.68812,47.68812,0,0,0,117.7373,375.27051ZM192,411.47168V480h-9.583l-12.59375-56.67383a48.276,48.276,0,0,0-9.375-19.57324l-25.522-31.9021A31.75628,31.75628,0,0,1,146.05469,356.459l11.77734-8.833,29.30371,46.88574A31.95832,31.95832,0,0,1,192,411.47168Zm-7.15527-175.0498L155.05566,296H87.36133l-7.38867-88.66406a8.07345,8.07345,0,0,0-.28028-1.53321l-4.99023-17.46752,25.0376-10.01514,12.39355,16.52466A32.03646,32.03646,0,0,0,127.437,219.37061l-7.35693,51.49755,15.83984,2.26368,7.02271-49.1587c.3518.01148.70288.02686,1.05737.02686a31.92117,31.92117,0,0,0,23.61475-10.43018l11.855-4.7417,11.397,22.79419-2.44482,1.22242A8.004,8.004,0,0,0,184.84473,236.42188Zm37.96289-27.92481a32.19609,32.19609,0,0,1-14.31153,14.31055l-3.31836,1.65918L194.377,202.86523l8.59375-3.4375a8.00538,8.00538,0,0,0,3.42969-2.62793l11.62207-15.49609A7.972,7.972,0,0,0,224,184h11.05591Zm66.38476-.001L276.94434,184H288a7.972,7.972,0,0,0,5.97754-2.69629l11.62207,15.49609a8.00538,8.00538,0,0,0,3.42969,2.62793l8.59375,3.4375L306.822,224.467l-3.31909-1.65942A32.19609,32.19609,0,0,1,289.19238,208.49609Zm34.38574,24.34864-2.44482-1.22242,11.397-22.79443,11.8545,4.7417A31.92248,31.92248,0,0,0,368,224c.35449,0,.70557-.01538,1.05737-.02686l7.02271,49.1587,15.83984-2.26368L384.563,219.37061a32.03646,32.03646,0,0,0,15.30371-24.52588l12.39355-16.52466,25.03785,10.01514-4.99048,17.46752a8.07345,8.07345,0,0,0-.28028,1.53321L424.63867,296H356.94434l-29.78907-59.57812A8.004,8.004,0,0,0,323.57812,232.84473Zm27.97364,170.90918a48.26608,48.26608,0,0,0-9.375,19.57226L329.583,480H320V411.47168a31.95832,31.95832,0,0,1,4.86426-16.96L354.168,347.626l11.77734,8.833a31.75471,31.75471,0,0,1,11.12842,15.39209ZM451.91309,480l-47.07715-60.52734a32.046,32.046,0,0,1-6.418-15.12012l-4.15527-29.08106a47.688,47.688,0,0,0-18.71778-31.61328L360,332V312h64v79.33594a47.69153,47.69153,0,0,0,4.30176,19.8623L459.57617,480Z"/></svg>
